<svg width="602" height="101" viewBox="0 0 602 101" fill="none" xmlns="http://www.w3.org/2000/svg">
<circle cx="46" cy="50" r="46" fill="#6610F2"/>
<path d="M56.32 13.96L61.92 12.84V71H56.32V65.8C53.2 69.56 48.56 71.8 43.36 71.8C33.68 72.04 24.96 63.4 25.2 53.4C24.96 43.4 33.68 34.76 43.36 35C48.56 35 53.2 37.24 56.32 41V13.96ZM56.72 53.4C56.72 46.12 50.96 40.2 43.84 40.2C36.64 40.2 30.96 46.12 30.96 53.4C30.96 60.68 36.64 66.6 43.84 66.6C50.96 66.6 56.72 60.68 56.72 53.4Z" fill="white"/>
<circle cx="148" cy="50" r="46" fill="#1A8FE3"/>
<path d="M162.28 60.12L164.44 65.24C160.04 69.48 154.68 71.8 148.92 71.8C138.12 71.8 130.2 63.64 130.2 53.48C130.2 43.16 138.44 35 148.76 35C157.4 35 164.04 40.76 165.32 49.56L136.76 58.84C138.68 63.64 143.24 66.68 149 66.68C154.04 66.68 158.44 64.52 162.28 60.12ZM135.72 53.48V53.8L158.76 46.36C157.24 42.52 153.4 40.12 148.68 40.12C141.48 40.12 135.72 46.12 135.72 53.48Z" fill="white"/>
<circle cx="250" cy="50" r="46" fill="#D11149"/>
<path d="M235.2 53.4C235.2 43.4 243.68 35 253.84 35C256.96 35 260.08 35.72 263.12 37.24L262.08 42.6C259.36 41 256.64 40.2 253.84 40.2C246.4 40.2 240.96 46.04 240.96 53.4C240.96 60.76 246.48 66.6 253.84 66.6C256.72 66.6 259.6 65.72 262.48 63.96L263.44 69.48C260.24 71 257.04 71.8 253.84 71.8C243.68 71.8 235.2 63.4 235.2 53.4Z" fill="white"/>
<circle cx="352" cy="50" r="46" fill="#F17105"/>
<path d="M333.2 53.4C333.04 43.4 341.6 34.76 351.92 35C362.24 34.76 370.8 43.4 370.64 53.4C370.8 63.4 362.24 72.04 351.92 71.8C341.6 72.04 333.04 63.4 333.2 53.4ZM364.88 53.4C364.88 45.96 359.12 40.2 351.92 40.2C344.72 40.2 338.96 45.96 338.96 53.4C338.96 60.84 344.72 66.6 351.92 66.6C359.12 66.6 364.88 60.84 364.88 53.4Z" fill="white"/>
<circle cx="454" cy="50" r="46" fill="#6610F2"/>
<path d="M464.32 13.96L469.92 12.84V71H464.32V65.8C461.2 69.56 456.56 71.8 451.36 71.8C441.68 72.04 432.96 63.4 433.2 53.4C432.96 43.4 441.68 34.76 451.36 35C456.56 35 461.2 37.24 464.32 41V13.96ZM464.72 53.4C464.72 46.12 458.96 40.2 451.84 40.2C444.64 40.2 438.96 46.12 438.96 53.4C438.96 60.68 444.64 66.6 451.84 66.6C458.96 66.6 464.72 60.68 464.72 53.4Z" fill="white"/>
<circle cx="556" cy="50" r="46" fill="#1A8FE3"/>
<path d="M570.28 60.12L572.44 65.24C568.04 69.48 562.68 71.8 556.92 71.8C546.12 71.8 538.2 63.64 538.2 53.48C538.2 43.16 546.44 35 556.76 35C565.4 35 572.04 40.76 573.32 49.56L544.76 58.84C546.68 63.64 551.24 66.68 557 66.68C562.04 66.68 566.44 64.52 570.28 60.12ZM543.72 53.48V53.8L566.76 46.36C565.24 42.52 561.4 40.12 556.68 40.12C549.48 40.12 543.72 46.12 543.72 53.48Z" fill="white"/>
</svg>
